# xmcd
#
# Track frame offsets:
#	150
#	12033
#	35865
#	57054
#	83055
#
# Disc length: 1466 seconds
#
# Revision: 1
# Processed by: cddbd v1.5.1PL0 Copyright (c) Steve Scherf et al.
# Submitted via: CDex 1.50Beta5
#
DISCID=3205b805
DTITLE=ORITA - Phill
DYEAR=2003
DGENRE=Pop
TTITLE0=rain〜雨音の窓辺で
TTITLE1=月下美人〜Tube Rose〜
TTITLE2=眠りの森
TTITLE3=真珠の夢は水の底に沈む
TTITLE4=地上の楽園
EXTD=
EXTT0=
EXTT1=
EXTT2=
EXTT3=
EXTT4=
PLAYORDER=
